M48
;DRILL file {Pcbnew (2012-apr-16-27)-stable} date Son 23 Feb 2014 20:39:26 CET
;FORMAT={-:-/ absolute / metric / decimal}
FMAT,2
METRIC,TZ
T1C0.599
T2C0.701
T3C0.800
T4C0.813
T5C1.001
T6C1.016
T7C1.300
%
G90
G05
M71
T1
X76.200Y101.600
X77.470Y101.600
X99.060Y101.600
X100.330Y102.870
X117.475Y106.680
X118.745Y107.950
X146.685Y79.375
X147.955Y80.645
T2
X77.470Y83.820
X78.740Y85.090
X80.010Y83.820
X133.985Y102.235
X133.985Y104.775
X135.255Y103.505
X142.240Y102.235
X142.240Y104.775
X143.510Y103.505
X147.955Y102.235
X147.955Y104.775
X149.225Y103.505
X153.670Y102.235
X153.670Y104.775
X154.940Y103.505
T3
X80.010Y104.140
X82.550Y104.140
X99.060Y96.520
X99.060Y99.060
T4
X77.470Y91.440
X77.470Y93.980
X77.470Y96.520
X77.470Y99.060
X78.740Y87.630
X80.645Y78.105
X80.645Y80.645
X83.820Y87.630
X85.090Y91.440
X85.090Y93.980
X85.090Y96.520
X85.090Y99.060
X87.630Y99.060
X87.630Y109.220
X88.900Y88.900
X88.900Y91.440
X99.060Y88.900
X99.060Y91.440
X103.505Y88.900
X103.505Y99.060
X107.950Y86.360
X107.950Y88.900
X107.950Y91.440
X107.950Y93.980
X107.950Y96.520
X107.950Y99.060
X107.950Y101.600
X107.950Y104.140
X109.220Y82.550
X114.300Y82.550
X115.570Y86.360
X115.570Y88.900
X115.570Y91.440
X115.570Y93.980
X115.570Y96.520
X115.570Y99.060
X115.570Y101.600
X115.570Y104.140
X120.650Y91.440
X120.650Y93.980
X120.650Y96.520
X120.650Y99.060
X120.650Y101.600
X120.650Y104.140
X120.650Y106.680
X121.920Y87.630
X127.000Y87.630
X128.270Y91.440
X128.270Y93.980
X128.270Y96.520
X128.270Y99.060
X128.270Y101.600
X128.270Y104.140
X128.270Y106.680
X135.890Y73.025
X135.890Y76.835
X135.890Y79.375
X135.890Y85.725
X135.890Y88.265
X135.890Y94.615
X135.890Y97.155
X137.160Y102.235
X137.160Y112.395
X138.430Y73.025
X139.700Y102.235
X139.700Y112.395
X140.970Y73.025
X143.510Y73.025
X144.780Y85.725
X144.780Y88.265
X145.415Y102.235
X145.415Y112.395
X146.050Y73.025
X148.590Y73.025
X151.130Y73.025
X151.130Y102.235
X151.130Y112.395
X153.670Y73.025
X153.670Y76.835
X153.670Y79.375
X153.670Y85.725
X153.670Y88.265
X153.670Y94.615
X153.670Y97.155
X156.845Y102.235
X156.845Y112.395
T5
X90.980Y102.141
X90.980Y106.139
X96.980Y102.141
X96.980Y106.139
X120.650Y78.740
X128.270Y78.740
T6
X88.900Y93.980
X99.060Y93.980
X106.680Y74.930
X116.840Y74.930
T7
X86.980Y75.740
X86.980Y81.740
X93.980Y75.740
X93.980Y81.740
X100.980Y75.740
X100.980Y81.740
T0
M30
