M48
;Layer_Color=9474304
;FILE_FORMAT=4:4
METRIC,LZ
;TYPE=PLATED
T1F00S00C0.3048
T2F00S00C0.3810
T3F00S00C0.5000
T4F00S00C0.9000
T5F00S00C1.5000
%
T01
X-00037915Y0013208
X0001651Y00261436
X0003048Y00256356
X0009398Y00255086
X0010668Y00265246
X0015367Y00322396
X0016764
X0016383Y00393516
X0015875Y00412566
X000635Y00387166
X0004445
X-0001778Y00356686
X-000381Y00368116
X-0009525Y00260166
T02
X-0014351Y00330016
X-0009144
X-000635
X-0004064
X-0001905Y00343986
X0007874Y00263976
X0009271Y00265246
X0012446Y00187776
X00178308Y00302076
T03
X-001143Y-000127
X-001016
X-000889
Y0
X-001016Y000127
X-0003175Y0003175
Y0007366
X-0000381
X0003175Y000254
Y-0001651
X-0003175
X0007366Y000254
X0008255Y00056966
X0007366Y0006604
X0010668Y00072968
X00124206Y00072714
X0012446Y00114116
X0010668
X0009652Y00144596
X0013335Y00145866
X001524Y00158566
X0014732Y00128086
X0017526Y00182696
X0017399Y00233496
X0013335Y0020828
X001016Y00224606
X0008382
X0009398Y00189046
X000635Y00187776
X0002413Y00206826
X0002413Y0022479
X0000635Y00246196
X-0000635Y00234766
X-0001905Y00228416
Y00247466
X-0005334Y00246196
X-0003175Y00210636
X-0003175Y0019431
X-0000635Y00195396
X0000635Y00171266
X-0000635Y00158566
X-0001651Y0014986
X-0004318Y00149676
X-0004953Y0013716
X-0007366Y00161106
X-0009271Y00171266
X-0010795
X-0013716Y00195396
X-0014224Y00152216
X-001651Y00164916
X-001651Y002413
X-0013589Y00255086
X-0012446Y00244926
X-001524Y00277946
X-0013081Y0030607
X-0009906Y00293186
X-0008128
X-0001778Y00295726
X-0001651Y00318586
X-0000635Y00308426
X0000635Y00318586
Y00272866
X-0000635Y00283026
X0008382Y00298266
X001016
X0009271Y00337636
Y00350336
X0006096Y00357956
X0006858Y00374466
X0011049Y0038481
X0013335Y00378276
Y00356686
X0013716Y0040894
X0000762Y0039497
X-0000889Y00435426
X-0005969Y0040767
X-0006096Y0039116
X-000762
X-0007747Y0040767
X-001651Y00368116
X-001651Y0008128
X-0000381Y0011684
X0004445Y0013081
X0003556Y0008255
X-0005334Y00182696
T04
X-0016256Y0
X-0013716
Y000254
X-0016256
X0013716
X0016256
Y0
X0013716
X001143Y00415106
X000889
X000635
X000381
X000508Y00440506
X000762
X001016
X000254
X-000508Y00431616
X-000762
X-001016
T05
X-0000889Y00473526
X0014859Y00448634
M30
