M48
;DRILL file {KiCad 4.0.7-e2-6376~58~ubuntu16.04.1} date Mon Nov 13 08:58:34 2017
;FORMAT={-:-/ absolute / metric / decimal}
FMAT,2
METRIC,TZ
T1C0.300
%
G90
G05
M71
T1
X0.75Y3.25
X0.75Y-3.25
X0.752Y2.2
X0.752Y1.
X0.752Y0.
X0.752Y-1.
X0.752Y-2.2
X1.75Y3.25
X1.75Y2.25
X1.75Y1.
X1.75Y0.
X1.75Y-1.
X1.75Y-2.25
X1.75Y-3.25
X3.25Y1.75
X3.299Y0.579
X3.299Y-0.579
X3.299Y-1.75
X4.75Y2.
X4.75Y1.
X4.75Y0.
X4.75Y-1.
X4.75Y-2.
X6.101Y1.73
X6.101Y0.579
X6.101Y-0.579
X6.101Y-1.73
X9.716Y1.039
X9.75Y2.975
X9.751Y2.2
X11.241Y2.25
X11.4Y-1.3
X11.522Y3.606
X13.5Y-3.
X21.Y-3.
X21.75Y-0.25
X28.Y2.5
T0
M30
