%
M48
M72
T01C0.0236
T02C0.0320
T03C0.0394
T04C0.0400
T05C0.0433
T06C0.0440
T07C0.0470
T08C0.0520
T09C0.0790
T10C0.1100
T11C0.1260
T12C0.1300
T13C0.1620
%
T01
X22942Y12180
X31192Y12180
X48067Y12555
X48067Y17930
X50692Y23430
X50817Y26805
X59567Y27930
X59567Y29430
X65692Y29430
X65692Y27930
X65442Y21430
X65442Y20305
X65442Y18430
X59192Y18430
X59317Y20305
X59317Y21430
X59442Y11930
X65692Y11930
X64442Y6430
X76317Y6430
T02
X11642Y10205
X11642Y14205
X11642Y15680
X10642Y15680
X10567Y17680
X11567Y17680
X12442Y17680
X16442Y17680
X32317Y7930
X33067Y7430
X33067Y8430
X34692Y7430
X35442Y6930
X35442Y7930
X35442Y4305
X39442Y4305
X19217Y40205
X19217Y42205
X19067Y51680
X15067Y51680
X3117Y42780
X3117Y40780
X71517Y43105
X71517Y44105
X71517Y45105
X71517Y46105
X71517Y47105
X71517Y48105
X71517Y49105
X71517Y50105
X71517Y51105
X74517Y51105
X74517Y50105
X74517Y49105
X74517Y48105
X74517Y47105
X74517Y46105
X74517Y45105
X74517Y44105
X74517Y43105
T03
X74135Y39429
X75135Y39429
X75135Y38429
X74135Y38429
X74135Y37429
X75135Y37429
X75135Y36429
X75135Y35429
X74135Y35429
X74135Y36429
X74135Y34429
X75135Y34429
X75135Y33429
X74135Y33429
X74135Y32429
X75135Y32429
X75135Y31429
X75135Y30429
X74135Y30429
X74135Y31429
X74135Y29429
X75135Y29429
X75135Y28429
X74135Y28429
X74135Y27429
X75135Y27429
X75135Y26429
X75135Y25429
X74135Y25429
X74135Y26429
X74135Y24429
X75135Y24429
X75135Y23429
X74135Y23429
X74135Y22429
X75135Y22429
X75135Y21429
X74135Y21429
X74135Y20429
X74135Y19429
X75135Y19429
X75135Y20429
X75135Y18429
X74135Y18429
X74135Y17429
X75135Y17429
X75135Y16429
X74135Y16429
X74135Y15429
X74135Y14429
X75135Y14429
X75135Y15429
X75135Y13429
X74135Y13429
X74135Y12429
X75135Y12429
X75135Y11429
X74135Y11429
X74135Y10429
X74135Y9429
X75135Y9429
X75135Y10429
X75135Y8429
X74135Y8429
X55165Y8462
X54165Y8462
X54165Y9462
X55165Y9462
X55165Y10462
X54165Y10462
X54165Y11462
X55165Y11462
X55165Y12462
X54165Y12462
X54165Y13462
X55165Y13462
X55165Y14462
X54165Y14462
X54165Y15462
X55165Y15462
X55165Y16462
X54165Y16462
X54165Y17462
X55165Y17462
X55165Y18462
X54165Y18462
X54165Y19462
X55165Y19462
X55165Y20462
X54165Y20462
X54165Y21462
X55165Y21462
X55165Y22462
X54165Y22462
X54165Y23462
X55165Y23462
X55165Y24462
X54165Y24462
X54165Y25462
X55165Y25462
X55165Y26462
X54165Y26462
X54165Y27462
X55165Y27462
X55165Y28462
X54165Y28462
X54165Y29462
X55165Y29462
X55165Y30462
X54165Y30462
X54165Y31462
X55165Y31462
X55165Y32462
X54165Y32462
X54165Y33462
X55165Y33462
X55165Y34462
X54165Y34462
X54165Y35462
X55165Y35462
X55165Y36462
X54165Y36462
X54165Y37462
X55165Y37462
X55165Y38462
X54165Y38462
X54165Y39462
X55165Y39462
T04
X42567Y39459
X41567Y39459
X41567Y40459
X42567Y40459
X42567Y38459
X41567Y38459
X41567Y37459
X42567Y37459
X42567Y36459
X41567Y36459
X41567Y35459
X42567Y35459
X42567Y34459
X41567Y34459
X41567Y33459
X42567Y33459
X42567Y32459
X41567Y32459
X41567Y31459
X42567Y31459
X42567Y30459
X41567Y30459
X41567Y29459
X42567Y29459
X42567Y28459
X41567Y28459
X41567Y27459
X42567Y27459
X42567Y26459
X41567Y26459
X41567Y25459
X42567Y25459
X42567Y24459
X41567Y24459
X41567Y23459
X42567Y23459
X42567Y22459
X41567Y22459
X41567Y21459
X42567Y21459
X41962Y13095
X41962Y11315
X40322Y10245
X40322Y8465
X37762Y8465
X37762Y10245
X37342Y6505
X37342Y5505
X41987Y4615
X41987Y6395
X44547Y6395
X44547Y4615
X46212Y8465
X46212Y10245
X44522Y11315
X44522Y13095
X48772Y10245
X48772Y8465
X25977Y7680
X24897Y7680
X23817Y7680
X24357Y6680
X23277Y6680
X22197Y6680
X22737Y7680
X21657Y7680
X25437Y6680
X79067Y41180
X79067Y42180
X79067Y43180
X79067Y44180
X79067Y45180
X79067Y46180
X79067Y47180
X79067Y48180
X79067Y49180
T05
X2431Y48816
X2431Y50194
T06
X9442Y49930
X12442Y49930
X10017Y53455
X15017Y53455
T07
X11817Y34830
X8817Y31830
T08
X6567Y46305
X6567Y52305
X14442Y14555
X14442Y10805
X20442Y10805
X20442Y14555
T09
X16492Y44880
X16492Y48880
T10
X6567Y49305
X17442Y14555
X17442Y10805
T11
X22720Y19522
X42086Y19529
X42067Y42305
X22767Y42305
T12
X18887Y7180
X28747Y7180
T13
X15017Y28630
X6617Y37030
M30
